# xmcd CD database file
#
# Track frame offsets:
#	150
#	14682
#	25105
#	41160
#	53757
#	64187
#	77587
#	93960
#	104015
#	117537
#	128605
#	141215
#
# Disc length: 2059 seconds
#
# Revision: 0
# Processed by: cddbd v1.5.2PL0 Copyright (c) Steve Scherf et al.
# Submitted via: CDex 1.70beta2
#
DISCID=a308090c
DTITLE=Various Artist -  - Das Lied der Heimat - CD - 2
DYEAR=1993
DGENRE=Volksmusik
TTITLE0=Du bist zur Liebe geboren - Walter Oberbrandacher
TTITLE1=Das Lied der Heimat - Laterndl trio
TTITLE2=Streit oder Frieden - Andreas and Bernd
TTITLE3=Beim Törggelen in Südtirol - Weigheimer Buam
TTITLE4=Ein Jodler aus der Heimat - Dolomiten Sextett Lienz
TTITLE5=Gruß vom Steireland - Original 6 Steirer
TTITLE6=I laß di net gehn - Die Alpenfrieden
TTITLE7=Beim Stadlfest /Original Bregenzerwälder Dorfmusikanten
TTITLE8=Ich glaube an dich - Feldkirchner Spatzen
TTITLE9=So klingts bei uns - Original Hofer Spatzen
TTITLE10=Ich wünsch dir zu diesem Feeste - Lydia Huber 
TTITLE11=Drum denk zerscht nach - Kristall Quintett
EXTD=YEAR: 1993
EXTT0=
EXTT1=
EXTT2=
EXTT3=
EXTT4=
EXTT5=
EXTT6=
EXTT7=
EXTT8=
EXTT9=
EXTT10=
EXTT11=
PLAYORDER=
